<svg xmlns="http://www.w3.org/2000/svg" viewBox="0 0 100 100" fill="none">
  <rect width="100" height="100" rx="20" fill="#F5F0E8"/>
  <g transform="translate(20, 20) scale(2.5)">
    <path d="M12 21.35l-1.45-1.32C5.4 15.36 2 12.28 2 8.5 2 5.42 4.42 3 7.5 3c1.74 0 3.41.81 4.5 2.09C13.09 3.81 14.76 3 16.5 3 19.58 3 22 5.42 22 8.5c0 3.78-3.4 6.86-8.55 11.54L12 21.35z" fill="#166534" opacity="0.3"/>
    <circle cx="8" cy="6" r="2.5" fill="#166534"/>
    <circle cx="16" cy="6" r="2.5" fill="#166534"/>
    <circle cx="5" cy="12" r="2.5" fill="#166534"/>
    <circle cx="19" cy="12" r="2.5" fill="#166534"/>
    <ellipse cx="12" cy="15" rx="4" ry="3.5" fill="#166534"/>
  </g>
</svg>
