<svg xmlns="http://www.w3.org/2000/svg" xmlns:xlink="http://www.w3.org/1999/xlink" width="1600" zoomAndPan="magnify" viewBox="0 0 1200 671.999997" height="896" preserveAspectRatio="xMidYMid meet" version="1.0"><defs><g/><clipPath id="ed089ca99e"><rect x="0" width="931" y="0" height="275"/></clipPath><clipPath id="67ab6572b1"><path d="M 737 237 L 900 237 L 900 400 L 737 400 Z M 737 237 " clip-rule="nonzero"/></clipPath><clipPath id="f98657841e"><path d="M 719.957031 268.109375 L 877.566406 221.878906 L 921.265625 370.851562 L 763.65625 417.082031 Z M 719.957031 268.109375 " clip-rule="nonzero"/></clipPath><clipPath id="c4297d99f2"><path d="M 719.957031 268.109375 L 877.566406 221.878906 L 921.265625 370.851562 L 763.65625 417.082031 Z M 719.957031 268.109375 " clip-rule="nonzero"/></clipPath></defs><g transform="matrix(1, 0, 0, 1, 143, 201)"><g clip-path="url(#ed089ca99e)"><g fill="#000000" fill-opacity="1"><g transform="translate(0.0892861, 221.236253)"><g><path d="M 105.375 -178.390625 C 113.71875 -174.910156 121.320312 -170.429688 128.1875 -164.953125 C 135.050781 -159.484375 140.613281 -153.140625 144.875 -145.921875 C 149.132812 -138.703125 151.566406 -130.921875 152.171875 -122.578125 C 152.785156 -114.234375 151.007812 -105.539062 146.84375 -96.5 C 141.445312 -85.539062 133.96875 -76.800781 124.40625 -70.28125 C 114.84375 -63.769531 104.28125 -59.597656 92.71875 -57.765625 C 81.15625 -55.941406 69.722656 -56.332031 58.421875 -58.9375 C 57.378906 -49.03125 56.335938 -39.117188 55.296875 -29.203125 C 54.253906 -19.296875 53.207031 -9.390625 52.15625 0.515625 C 51.632812 5.390625 49.9375 9.347656 47.0625 12.390625 C 44.195312 15.429688 40.765625 17.429688 36.765625 18.390625 C 32.773438 19.347656 28.863281 19.347656 25.03125 18.390625 C 21.207031 17.429688 18.164062 15.472656 15.90625 12.515625 C 13.644531 9.554688 12.691406 5.554688 13.046875 0.515625 C 15.472656 -22.953125 17.816406 -46.378906 20.078125 -69.765625 C 22.335938 -93.148438 24.773438 -116.492188 27.390625 -139.796875 C 28.609375 -149.015625 31.128906 -157.316406 34.953125 -164.703125 C 38.773438 -172.085938 45.296875 -177.519531 54.515625 -181 C 62.679688 -184.132812 71.238281 -185.265625 80.1875 -184.390625 C 89.144531 -183.523438 97.539062 -181.523438 105.375 -178.390625 Z M 62.328125 -98.328125 C 66.679688 -97.109375 71.640625 -96.410156 77.203125 -96.234375 C 82.765625 -96.066406 88.238281 -96.675781 93.625 -98.0625 C 99.019531 -99.457031 103.539062 -101.847656 107.1875 -105.234375 C 110.84375 -108.628906 112.929688 -113.28125 113.453125 -119.1875 C 113.796875 -123.007812 112.488281 -126.703125 109.53125 -130.265625 C 106.582031 -133.835938 102.757812 -136.925781 98.0625 -139.53125 C 93.375 -142.144531 88.679688 -144.015625 83.984375 -145.140625 C 79.285156 -146.273438 75.285156 -146.40625 71.984375 -145.53125 C 70.066406 -144.832031 68.890625 -144.394531 68.453125 -144.21875 C 68.023438 -144.050781 67.8125 -143.707031 67.8125 -143.1875 C 67.8125 -142.664062 67.375 -141.535156 66.5 -139.796875 C 65.457031 -137.535156 64.9375 -134.488281 64.9375 -130.65625 C 64.9375 -126.832031 64.851562 -123.53125 64.6875 -120.75 C 64.332031 -116.925781 63.9375 -113.1875 63.5 -109.53125 C 63.070312 -105.882812 62.679688 -102.148438 62.328125 -98.328125 Z M 62.328125 -98.328125 "/></g></g></g><g fill="#000000" fill-opacity="1"><g transform="translate(165.436709, 221.236253)"><g><path d="M 108.765625 -55.03125 C 113.804688 -54.851562 117.847656 -53.375 120.890625 -50.59375 C 123.929688 -47.8125 125.925781 -44.460938 126.875 -40.546875 C 127.832031 -36.640625 127.832031 -32.773438 126.875 -28.953125 C 125.925781 -25.128906 123.929688 -21.957031 120.890625 -19.4375 C 117.847656 -16.914062 113.804688 -15.738281 108.765625 -15.90625 C 96.941406 -16.425781 85.113281 -16.378906 73.28125 -15.765625 C 61.457031 -15.160156 49.632812 -13.90625 37.8125 -12 C 34.164062 -11.476562 30.34375 -11.867188 26.34375 -13.171875 C 22.34375 -14.472656 18.992188 -16.601562 16.296875 -19.5625 C 13.609375 -22.519531 12.609375 -26.34375 13.296875 -31.03125 C 16.253906 -55.03125 19.515625 -79.023438 23.078125 -103.015625 C 26.640625 -127.015625 30.507812 -151.007812 34.6875 -175 C 35.207031 -177.957031 36.25 -180.476562 37.8125 -182.5625 C 39.207031 -185 41.207031 -187.039062 43.8125 -188.6875 C 46.425781 -190.34375 49.644531 -191.257812 53.46875 -191.4375 C 72.25 -191.957031 91.023438 -191.609375 109.796875 -190.390625 C 114.835938 -190.046875 118.878906 -188.4375 121.921875 -185.5625 C 124.972656 -182.695312 126.972656 -179.304688 127.921875 -175.390625 C 128.878906 -171.484375 128.878906 -167.613281 127.921875 -163.78125 C 126.972656 -159.957031 124.972656 -156.828125 121.921875 -154.390625 C 118.878906 -151.960938 114.835938 -150.921875 109.796875 -151.265625 C 96.929688 -152.140625 83.804688 -152.578125 70.421875 -152.578125 C 69.546875 -147.535156 68.671875 -142.492188 67.796875 -137.453125 C 66.929688 -132.410156 66.15625 -127.367188 65.46875 -122.328125 C 72.59375 -122.148438 79.457031 -121.710938 86.0625 -121.015625 C 91.28125 -120.492188 95.84375 -118.535156 99.75 -115.140625 C 103.664062 -111.753906 105.625 -107.191406 105.625 -101.453125 C 105.625 -98.148438 104.710938 -94.929688 102.890625 -91.796875 C 101.066406 -88.671875 98.675781 -86.148438 95.71875 -84.234375 C 92.757812 -82.328125 89.539062 -81.546875 86.0625 -81.890625 C 77.195312 -82.765625 68.332031 -83.203125 59.46875 -83.203125 C 58.769531 -78.328125 58.070312 -73.367188 57.375 -68.328125 C 56.675781 -63.285156 55.984375 -58.332031 55.296875 -53.46875 C 64.160156 -54.332031 73.023438 -54.894531 81.890625 -55.15625 C 90.765625 -55.414062 99.722656 -55.375 108.765625 -55.03125 Z M 108.765625 -55.03125 "/></g></g></g><g fill="#000000" fill-opacity="1"><g transform="translate(307.051313, 221.236253)"><g><path d="M 118.9375 -179.171875 C 123.800781 -178.484375 127.707031 -176.660156 130.65625 -173.703125 C 133.613281 -170.742188 135.613281 -167.265625 136.65625 -163.265625 C 137.707031 -159.265625 137.707031 -155.351562 136.65625 -151.53125 C 135.613281 -147.707031 133.613281 -144.707031 130.65625 -142.53125 C 127.707031 -140.363281 123.800781 -139.539062 118.9375 -140.0625 C 110.9375 -141.101562 102.585938 -141.882812 93.890625 -142.40625 C 92.671875 -123.445312 91.492188 -104.492188 90.359375 -85.546875 C 89.234375 -66.597656 88.0625 -47.554688 86.84375 -28.421875 C 86.675781 -23.554688 85.15625 -19.601562 82.28125 -16.5625 C 79.414062 -13.519531 76.023438 -11.476562 72.109375 -10.4375 C 68.203125 -9.394531 64.332031 -9.394531 60.5 -10.4375 C 56.675781 -11.476562 53.546875 -13.472656 51.109375 -16.421875 C 48.679688 -19.378906 47.554688 -23.378906 47.734375 -28.421875 C 48.941406 -47.554688 50.109375 -66.640625 51.234375 -85.671875 C 52.367188 -104.710938 53.546875 -123.796875 54.765625 -142.921875 C 46.941406 -142.578125 39.289062 -142.054688 31.8125 -141.359375 C 26.769531 -140.835938 22.726562 -141.75 19.6875 -144.09375 C 16.644531 -146.445312 14.644531 -149.535156 13.6875 -153.359375 C 12.738281 -157.179688 12.785156 -161.046875 13.828125 -164.953125 C 14.867188 -168.867188 16.863281 -172.304688 19.8125 -175.265625 C 22.769531 -178.222656 26.769531 -179.960938 31.8125 -180.484375 C 60.851562 -183.441406 89.894531 -183.003906 118.9375 -179.171875 Z M 118.9375 -179.171875 "/></g></g></g><g fill="#000000" fill-opacity="1"><g transform="translate(457.533101, 221.236253)"><g><path d="M 115.015625 -64.9375 C 120.054688 -65.289062 124.054688 -64.289062 127.015625 -61.9375 C 129.972656 -59.59375 131.972656 -56.507812 133.015625 -52.6875 C 134.054688 -48.863281 134.054688 -44.953125 133.015625 -40.953125 C 131.972656 -36.953125 129.929688 -33.515625 126.890625 -30.640625 C 123.847656 -27.773438 119.890625 -26.171875 115.015625 -25.828125 C 101.804688 -24.953125 88.8125 -23.296875 76.03125 -20.859375 C 63.25 -18.429688 50.507812 -15.390625 37.8125 -11.734375 C 34.164062 -10.691406 30.34375 -10.910156 26.34375 -12.390625 C 22.34375 -13.867188 19.035156 -16.210938 16.421875 -19.421875 C 13.816406 -22.640625 12.691406 -26.425781 13.046875 -30.78125 C 15.128906 -51.125 17.171875 -71.46875 19.171875 -91.8125 C 21.171875 -112.15625 23.125 -132.5 25.03125 -152.84375 C 25.5625 -157.707031 27.300781 -161.660156 30.25 -164.703125 C 33.207031 -167.742188 36.6875 -169.742188 40.6875 -170.703125 C 44.6875 -171.660156 48.554688 -171.660156 52.296875 -170.703125 C 56.035156 -169.742188 59.078125 -167.785156 61.421875 -164.828125 C 63.765625 -161.878906 64.675781 -157.882812 64.15625 -152.84375 C 62.59375 -136.664062 61.03125 -120.535156 59.46875 -104.453125 C 57.90625 -88.367188 56.335938 -72.328125 54.765625 -56.328125 C 74.421875 -60.503906 94.503906 -63.375 115.015625 -64.9375 Z M 115.015625 -64.9375 "/></g></g></g><g fill="#000000" fill-opacity="1"><g transform="translate(604.367383, 221.236253)"><g/></g></g><g fill="#000000" fill-opacity="1"><g transform="translate(683.650695, 221.236253)"><g/></g></g><g fill="#000000" fill-opacity="1"><g transform="translate(762.939636, 221.236253)"><g><path d="M 118.40625 -108.765625 C 130.0625 -108.929688 139.015625 -106.144531 145.265625 -100.40625 C 151.523438 -94.675781 154.394531 -85.8125 153.875 -73.8125 C 153.53125 -63.375 150.878906 -53.414062 145.921875 -43.9375 C 140.960938 -34.46875 134.226562 -26.773438 125.71875 -20.859375 C 116.320312 -14.253906 106.101562 -10.773438 95.0625 -10.421875 C 84.019531 -10.078125 73.195312 -11.472656 62.59375 -14.609375 C 49.726562 -18.253906 39.46875 -23.945312 31.8125 -31.6875 C 24.164062 -39.425781 18.90625 -48.507812 16.03125 -58.9375 C 13.164062 -69.375 12.296875 -80.328125 13.421875 -91.796875 C 14.554688 -103.273438 17.425781 -114.664062 22.03125 -125.96875 C 26.644531 -137.269531 32.601562 -147.703125 39.90625 -157.265625 C 47.207031 -166.828125 55.59375 -174.867188 65.0625 -181.390625 C 74.539062 -187.910156 84.800781 -192.125 95.84375 -194.03125 C 106.882812 -195.945312 118.234375 -194.820312 129.890625 -190.65625 C 134.753906 -189.09375 138.226562 -186.523438 140.3125 -182.953125 C 142.40625 -179.390625 143.40625 -175.566406 143.3125 -171.484375 C 143.226562 -167.398438 142.226562 -163.660156 140.3125 -160.265625 C 138.40625 -156.878906 135.664062 -154.398438 132.09375 -152.828125 C 128.53125 -151.265625 124.40625 -151.351562 119.71875 -153.09375 C 111.363281 -155.875 103.316406 -155.828125 95.578125 -152.953125 C 87.847656 -150.085938 80.804688 -145.265625 74.453125 -138.484375 C 68.109375 -131.703125 62.9375 -124.007812 58.9375 -115.40625 C 54.9375 -106.800781 52.503906 -98.109375 51.640625 -89.328125 C 50.773438 -80.546875 51.992188 -72.765625 55.296875 -65.984375 C 57.203125 -61.984375 60.285156 -58.59375 64.546875 -55.8125 C 68.804688 -53.03125 73.585938 -51.070312 78.890625 -49.9375 C 84.191406 -48.8125 89.320312 -48.640625 94.28125 -49.421875 C 99.238281 -50.203125 103.367188 -52.242188 106.671875 -55.546875 C 109.109375 -58.160156 111.109375 -61.289062 112.671875 -64.9375 C 112.847656 -65.457031 112.976562 -66.109375 113.0625 -66.890625 C 113.144531 -67.679688 113.273438 -68.507812 113.453125 -69.375 C 113.273438 -69.375 113.054688 -69.375 112.796875 -69.375 C 112.535156 -69.375 112.320312 -69.375 112.15625 -69.375 C 111.457031 -69.375 110.800781 -69.375 110.1875 -69.375 C 109.582031 -69.375 108.929688 -69.375 108.234375 -69.375 C 105.273438 -66.25 101.445312 -64.289062 96.75 -63.5 C 92.0625 -62.71875 87.5 -63.328125 83.0625 -65.328125 C 78.632812 -67.328125 75.460938 -71.023438 73.546875 -76.421875 C 70.941406 -83.898438 70.851562 -89.8125 73.28125 -94.15625 C 75.71875 -98.5 79.585938 -101.671875 84.890625 -103.671875 C 90.191406 -105.671875 95.925781 -106.972656 102.09375 -107.578125 C 108.269531 -108.191406 113.707031 -108.585938 118.40625 -108.765625 Z M 118.40625 -108.765625 "/></g></g></g></g></g><g clip-path="url(#67ab6572b1)"><g clip-path="url(#f98657841e)"><g clip-path="url(#c4297d99f2)"><path fill="#ff6b00" d="M 830 396.832031 C 830.164062 396.234375 827.945312 396.566406 823.925781 397.746094 C 819.859375 398.9375 816.652344 399.417969 814.960938 399.082031 C 813.511719 398.796875 811.699219 398.742188 810.929688 398.964844 C 810.164062 399.1875 809.429688 399.011719 809.300781 398.574219 C 809.171875 398.136719 808.339844 397.988281 807.449219 398.25 C 806.558594 398.511719 805.464844 398.25 805.019531 397.664062 C 804.574219 397.082031 803.789062 396.726562 803.273438 396.878906 C 802.761719 397.027344 801.589844 396.546875 800.671875 395.804688 C 799.753906 395.0625 798.417969 394.121094 797.703125 393.707031 C 796.984375 393.296875 796.28125 392.554688 796.136719 392.058594 C 795.988281 391.5625 795.613281 391.441406 795.300781 391.792969 C 794.984375 392.140625 794.082031 391.066406 793.289062 389.402344 C 792.5 387.738281 791.496094 386.480469 791.0625 386.609375 C 790.089844 386.894531 786.570312 375.230469 787.363281 374.34375 C 787.675781 373.996094 787.828125 372.511719 787.699219 371.050781 C 787.570312 369.585938 787.960938 367.613281 788.566406 366.664062 C 789.171875 365.71875 789.683594 364.054688 789.707031 362.972656 C 789.726562 361.886719 790.09375 361.09375 790.519531 361.210938 C 790.945312 361.328125 791.253906 360.429688 791.207031 359.21875 C 791.128906 357.289062 791.957031 355.488281 795.066406 350.785156 C 795.480469 350.160156 795.609375 348.949219 795.359375 348.089844 C 795.105469 347.230469 795.222656 346.429688 795.617188 346.316406 C 796.015625 346.199219 795.957031 343.878906 795.488281 341.160156 C 795.023438 338.4375 794.964844 336.117188 795.359375 336.003906 C 795.757812 335.886719 795.929688 335.277344 795.746094 334.652344 C 795.5625 334.023438 796.175781 333.164062 797.109375 332.734375 C 798.042969 332.308594 798.996094 330.933594 799.226562 329.671875 C 799.460938 328.414062 799.753906 327.726562 799.882812 328.140625 C 800.011719 328.554688 800.421875 328.335938 800.792969 327.65625 C 801.164062 326.976562 802.113281 326.230469 802.902344 326 C 803.691406 325.765625 804.203125 325.117188 804.035156 324.550781 C 803.871094 323.988281 804.464844 323.25 805.359375 322.914062 C 806.25 322.578125 807.628906 321.117188 808.417969 319.667969 C 809.292969 318.070312 810.757812 316.769531 812.140625 316.363281 C 813.398438 315.996094 814.320312 315.335938 814.191406 314.894531 C 814.0625 314.457031 815.210938 313.730469 816.746094 313.28125 C 818.28125 312.832031 819.640625 312.820312 819.769531 313.257812 C 819.898438 313.699219 821.617188 313.582031 823.589844 313.003906 C 825.792969 312.359375 827.285156 312.3125 827.453125 312.882812 C 827.601562 313.394531 827.882812 313.523438 828.074219 313.167969 C 828.597656 312.21875 836.15625 313.96875 839.089844 315.71875 C 840.488281 316.554688 842.027344 317.117188 842.515625 316.976562 C 843 316.835938 843.289062 317.105469 843.160156 317.582031 C 843.027344 318.058594 844.070312 318.367188 845.472656 318.269531 C 846.878906 318.175781 848.128906 318.449219 848.257812 318.886719 C 848.550781 319.878906 850.316406 320.851562 853.679688 321.867188 C 855.113281 322.300781 856.390625 323 856.515625 323.421875 C 856.816406 324.449219 859.476562 325.851562 860.539062 325.542969 C 861.007812 325.402344 861.601562 326.007812 861.859375 326.886719 C 862.117188 327.761719 862.679688 328.375 863.109375 328.25 C 863.539062 328.125 864.378906 328.851562 864.976562 329.867188 C 865.570312 330.882812 866.355469 331.625 866.71875 331.519531 C 867.078125 331.414062 867.855469 332.042969 868.445312 332.921875 C 869.035156 333.796875 870.152344 334.859375 870.929688 335.285156 C 871.707031 335.707031 872.492188 336.566406 872.675781 337.191406 C 872.859375 337.820312 873.367188 338.226562 873.804688 338.097656 C 874.242188 337.96875 874.867188 338.761719 875.1875 339.855469 C 875.507812 340.953125 876.113281 341.75 876.53125 341.625 C 876.953125 341.503906 877.898438 342.589844 878.636719 344.039062 C 879.375 345.488281 880.257812 346.59375 880.597656 346.496094 C 880.9375 346.394531 881.820312 347.5 882.558594 348.949219 C 883.296875 350.398438 884.242188 351.484375 884.660156 351.363281 C 885.078125 351.238281 886.054688 353.292969 886.824219 355.921875 C 887.605469 358.578125 887.875 360.808594 887.429688 360.9375 C 886.992188 361.066406 886.847656 361.902344 887.109375 362.792969 C 887.371094 363.683594 887.078125 364.796875 886.464844 365.265625 C 885.605469 365.921875 885.621094 366.199219 886.535156 366.449219 C 887.296875 366.660156 886.730469 367.28125 884.953125 368.1875 C 883.425781 368.960938 882.273438 369.917969 882.386719 370.304688 C 882.5 370.695312 882.046875 371.175781 881.375 371.371094 C 880.703125 371.570312 880.105469 372.328125 880.046875 373.0625 C 879.984375 373.792969 879.46875 374.527344 878.894531 374.699219 C 878.320312 374.867188 877.835938 375.417969 877.816406 375.921875 C 877.796875 376.425781 875.789062 377.652344 873.351562 378.652344 C 870.914062 379.648438 869 380.738281 869.097656 381.078125 C 869.195312 381.414062 864.691406 383.316406 859.082031 385.300781 C 853.476562 387.289062 848.980469 389.226562 849.089844 389.609375 C 849.203125 389.992188 847.324219 390.882812 844.910156 391.589844 C 842.5 392.296875 840.632812 393.234375 840.761719 393.675781 C 840.894531 394.128906 838.585938 395.175781 835.367188 396.121094 C 831.820312 397.164062 829.835938 397.425781 830 396.832031 Z M 816.804688 314.402344 C 816.164062 314.339844 815.484375 314.570312 815.296875 314.914062 C 815.109375 315.253906 815.632812 315.304688 816.464844 315.023438 C 817.382812 314.714844 817.515625 314.46875 816.804688 314.402344 Z M 767.007812 362.0625 C 765.492188 361.734375 763.398438 360.964844 762.359375 360.34375 C 761.316406 359.726562 760.160156 359.3125 759.785156 359.421875 C 759.410156 359.53125 758.617188 358.789062 758.019531 357.773438 C 757.425781 356.757812 756.585938 356.03125 756.15625 356.160156 C 755.722656 356.285156 755.105469 355.480469 754.78125 354.371094 C 754.453125 353.261719 753.589844 352.304688 752.859375 352.242188 C 752.125 352.183594 751.335938 351.476562 751.097656 350.671875 C 750.863281 349.871094 750.285156 349.105469 749.816406 348.976562 C 749.347656 348.847656 748.15625 346.933594 747.167969 344.726562 C 746.179688 342.515625 744.890625 340.570312 744.304688 340.40625 C 743.609375 340.207031 742.273438 336.820312 740.480469 330.710938 L 737.726562 321.316406 L 740.238281 319.542969 C 741.617188 318.566406 742.375 317.832031 741.921875 317.914062 C 741.46875 317.992188 742.222656 317.242188 743.597656 316.242188 C 746.148438 314.390625 750.679688 313.824219 751.113281 315.300781 C 751.226562 315.699219 752.039062 315.8125 752.917969 315.554688 C 753.792969 315.296875 754.617188 315.445312 754.746094 315.882812 C 754.875 316.320312 755.367188 316.566406 755.839844 316.429688 C 756.3125 316.289062 758.789062 317.316406 761.339844 318.710938 C 763.890625 320.105469 766.300781 321.152344 766.695312 321.035156 C 767.09375 320.917969 767.902344 321.65625 768.5 322.667969 C 769.097656 323.683594 769.859375 324.433594 770.195312 324.335938 C 770.527344 324.238281 771.453125 325.527344 772.25 327.199219 C 773.042969 328.867188 774.042969 330.132812 774.464844 330.011719 C 774.890625 329.886719 775.726562 330.613281 776.324219 331.628906 C 776.917969 332.644531 777.726562 333.382812 778.117188 333.265625 C 778.507812 333.152344 779.039062 333.777344 779.296875 334.652344 C 779.554688 335.53125 780.125 336.140625 780.5625 336.011719 C 781.027344 335.878906 782.132812 338.421875 783.214844 342.109375 C 784.238281 345.589844 784.777344 348.765625 784.417969 349.164062 C 784.0625 349.566406 783.976562 350.609375 784.234375 351.488281 C 784.492188 352.363281 784.277344 352.964844 783.761719 352.820312 C 783.242188 352.679688 782.988281 353.132812 783.191406 353.832031 C 783.394531 354.527344 783.003906 355.515625 782.320312 356.023438 C 781.636719 356.53125 780.945312 357.355469 780.789062 357.851562 C 780.632812 358.347656 778.085938 359.632812 775.132812 360.707031 C 771.15625 362.152344 769.050781 362.503906 767.007812 362.0625 Z M 878.625 326.804688 C 878.207031 326.257812 876.957031 325.84375 875.84375 325.886719 C 874.734375 325.929688 873.335938 325.234375 872.738281 324.339844 C 872.140625 323.445312 871.382812 322.597656 871.046875 322.457031 C 869.078125 321.632812 867.214844 318.582031 865.863281 313.980469 C 864.804688 310.375 864.105469 308.992188 863.609375 309.542969 C 863.085938 310.125 863 309.824219 863.289062 308.445312 C 863.507812 307.402344 863.308594 305.269531 862.847656 303.699219 C 862.300781 301.835938 862.425781 300.214844 863.207031 299.019531 C 863.863281 298.007812 864.140625 296.277344 863.820312 295.167969 C 863.316406 293.402344 863.765625 289.285156 864.285156 290.9375 C 864.789062 292.542969 867.144531 285.882812 866.660156 284.226562 C 866.3125 283.042969 866.578125 282.214844 867.378906 281.976562 C 868.082031 281.773438 869.453125 280.585938 870.433594 279.34375 C 873.355469 275.628906 886.570312 272.417969 887.390625 275.222656 C 887.523438 275.671875 888.113281 275.898438 888.699219 275.726562 C 889.816406 275.398438 892.5625 278.09375 893.148438 280.089844 C 893.335938 280.726562 893.847656 281.140625 894.285156 281.011719 C 894.765625 280.871094 896.054688 284.101562 897.535156 289.148438 C 898.886719 293.75 899.679688 297.609375 899.296875 297.722656 C 898.914062 297.835938 898.796875 299.453125 899.035156 301.320312 C 899.28125 303.261719 898.871094 305.808594 898.070312 307.269531 C 897.304688 308.675781 896.828125 310.34375 897.015625 310.984375 C 897.203125 311.621094 896.996094 312.246094 896.558594 312.375 C 896.121094 312.503906 895.921875 313.160156 896.121094 313.832031 C 896.316406 314.503906 896.03125 315.390625 895.488281 315.808594 C 894.941406 316.222656 894.515625 317.308594 894.542969 318.21875 C 894.570312 319.128906 893.851562 320.457031 892.945312 321.171875 C 891.96875 321.9375 891.796875 322.367188 892.523438 322.222656 C 895.964844 321.539062 890.285156 324.492188 885.175781 326.042969 C 880.886719 327.347656 879.1875 327.542969 878.625 326.804688 Z M 737.84375 328.628906 C 737.523438 327.535156 737.574219 327.035156 737.953125 327.515625 C 738.335938 328 738.597656 328.894531 738.539062 329.507812 C 738.480469 330.121094 738.167969 329.726562 737.84375 328.628906 Z M 788.027344 313.296875 C 788.183594 312.730469 787.277344 312.402344 785.898438 312.523438 C 783.164062 312.761719 776.222656 309.410156 775.6875 307.589844 C 775.492188 306.925781 774.996094 306.480469 774.585938 306.597656 C 774.171875 306.71875 773.121094 305.28125 772.25 303.398438 C 771.378906 301.515625 770.402344 300.265625 770.082031 300.621094 C 769.765625 300.976562 769.175781 300.148438 768.773438 298.78125 C 768.347656 297.328125 767.773438 296.597656 767.394531 297.023438 C 767.011719 297.445312 766.398438 296.660156 765.914062 295.125 C 763.320312 286.929688 759.125 274.882812 758.238281 273.085938 C 757.671875 271.941406 757.558594 270.90625 757.984375 270.78125 C 758.414062 270.652344 758.441406 269.453125 758.046875 268.113281 C 757.628906 266.691406 757.726562 265.78125 758.273438 265.933594 C 758.792969 266.074219 759.050781 265.632812 758.851562 264.949219 C 758.652344 264.265625 759.023438 263.550781 759.683594 263.355469 C 760.339844 263.164062 760.710938 262.429688 760.503906 261.722656 C 760.21875 260.753906 760.648438 260.421875 762.265625 260.355469 C 763.84375 260.292969 764.3125 259.953125 764.050781 259.0625 C 763.644531 257.683594 766.765625 256.472656 769.308594 257.023438 C 770.191406 257.214844 772.320312 257.191406 774.042969 256.972656 C 775.761719 256.753906 777.265625 256.886719 777.378906 257.273438 C 777.632812 258.144531 783.699219 261.507812 784.558594 261.253906 C 784.910156 261.152344 785.832031 262.40625 786.609375 264.042969 C 787.386719 265.679688 788.328125 267.058594 788.703125 267.109375 C 789.074219 267.15625 790.511719 268.398438 791.894531 269.867188 C 794.082031 272.191406 794.835938 274.027344 797.703125 284.042969 C 799.632812 290.769531 800.734375 295.863281 800.355469 296.304688 C 800 296.722656 799.824219 298.277344 799.960938 299.757812 C 800.246094 302.800781 798.902344 306.390625 797.304688 306.859375 C 796.71875 307.03125 796.515625 307.417969 796.847656 307.71875 C 797.183594 308.019531 795.882812 309.152344 793.960938 310.238281 C 792.035156 311.324219 789.851562 312.675781 789.109375 313.246094 C 788.234375 313.917969 787.851562 313.933594 788.027344 313.296875 Z M 830.472656 293.667969 C 830.34375 293.230469 829.609375 293.050781 828.839844 293.265625 C 826.917969 293.808594 822.855469 291.308594 822.234375 289.203125 C 821.957031 288.253906 821.433594 287.800781 821.078125 288.199219 C 820.652344 288.671875 819.203125 284.765625 816.941406 277.054688 C 815.027344 270.527344 813.140625 265.011719 812.75 264.796875 C 812.355469 264.582031 811.585938 262.503906 811.03125 260.175781 C 809.988281 255.792969 810.882812 250.070312 812.695312 249.535156 C 813.25 249.375 813.851562 248.171875 814.039062 246.867188 C 814.226562 245.558594 814.644531 244.636719 814.96875 244.8125 C 815.292969 244.992188 816.578125 244.136719 817.820312 242.910156 C 820.261719 240.507812 826.960938 238.339844 828.300781 239.519531 C 828.722656 239.894531 830.902344 239.855469 833.136719 239.429688 C 835.375 239.007812 837.484375 239.0625 837.824219 239.554688 C 838.167969 240.046875 839.289062 240.828125 840.320312 241.292969 C 841.351562 241.757812 842.320312 242.5625 842.472656 243.085938 C 842.625 243.609375 843.234375 244.058594 843.824219 244.078125 C 845.304688 244.132812 851.683594 265.589844 850.582031 266.816406 C 850.164062 267.285156 849.859375 268.722656 849.910156 270.011719 C 849.964844 271.300781 849.714844 272.441406 849.355469 272.546875 C 849 272.652344 848.789062 273.882812 848.886719 275.28125 C 848.984375 276.683594 848.730469 277.925781 848.328125 278.042969 C 847.925781 278.160156 847.757812 278.8125 847.957031 279.492188 C 848.398438 280.992188 845.679688 285.746094 844.121094 286.203125 C 843.5 286.382812 843.285156 286.792969 843.640625 287.113281 C 843.996094 287.433594 843.105469 288.296875 841.65625 289.035156 C 840.210938 289.769531 839.128906 290.714844 839.25 291.132812 C 839.375 291.550781 837.5 292.472656 835.089844 293.179688 C 832.679688 293.886719 830.601562 294.105469 830.472656 293.667969 Z M 822.289062 238.410156 C 822.476562 238.066406 823.15625 237.835938 823.796875 237.898438 C 824.507812 237.964844 824.375 238.210938 823.457031 238.519531 C 822.628906 238.800781 822.101562 238.75 822.289062 238.410156 Z M 822.289062 238.410156 " fill-opacity="1" fill-rule="nonzero"/></g></g></g></svg>