<svg xmlns="http://www.w3.org/2000/svg" xmlns:xlink="http://www.w3.org/1999/xlink" width="1600" zoomAndPan="magnify" viewBox="0 0 1200 671.999997" height="896" preserveAspectRatio="xMidYMid meet" version="1.0"><defs><g/><clipPath id="3b8d9487b0"><rect x="0" width="1091" y="0" height="401"/></clipPath><clipPath id="4b810697b3"><path d="M 730.871094 246.6875 L 820.183594 246.6875 L 820.183594 336 L 730.871094 336 Z M 730.871094 246.6875 " clip-rule="nonzero"/></clipPath><clipPath id="aef2a6b911"><path d="M 775.527344 246.6875 C 750.863281 246.6875 730.871094 266.683594 730.871094 291.34375 C 730.871094 316.007812 750.863281 336 775.527344 336 C 800.191406 336 820.183594 316.007812 820.183594 291.34375 C 820.183594 266.683594 800.191406 246.6875 775.527344 246.6875 Z M 775.527344 246.6875 " clip-rule="nonzero"/></clipPath><clipPath id="05321f5b28"><path d="M 0.871094 0.6875 L 90.183594 0.6875 L 90.183594 90 L 0.871094 90 Z M 0.871094 0.6875 " clip-rule="nonzero"/></clipPath><clipPath id="4183aa739d"><path d="M 45.527344 0.6875 C 20.863281 0.6875 0.871094 20.683594 0.871094 45.34375 C 0.871094 70.007812 20.863281 90 45.527344 90 C 70.191406 90 90.183594 70.007812 90.183594 45.34375 C 90.183594 20.683594 70.191406 0.6875 45.527344 0.6875 Z M 45.527344 0.6875 " clip-rule="nonzero"/></clipPath><clipPath id="04d3520487"><rect x="0" width="91" y="0" height="90"/></clipPath><clipPath id="f3c24532c4"><path d="M 747 252 L 814 252 L 814 325 L 747 325 Z M 747 252 " clip-rule="nonzero"/></clipPath><clipPath id="e679374838"><path d="M 762.902344 242.585938 L 826.464844 276.40625 L 794.410156 336.65625 L 730.847656 302.839844 Z M 762.902344 242.585938 " clip-rule="nonzero"/></clipPath><clipPath id="e262eacfc6"><path d="M 762.902344 242.585938 L 826.464844 276.40625 L 794.410156 336.65625 L 730.847656 302.839844 Z M 762.902344 242.585938 " clip-rule="nonzero"/></clipPath></defs><g transform="matrix(1, 0, 0, 1, 54, 132)"><g clip-path="url(#3b8d9487b0)"><g fill="#000000" fill-opacity="1"><g transform="translate(0.827168, 315.559392)"><g><path d="M 169.671875 -205.3125 C 172.253906 -212.28125 176.253906 -217.3125 181.671875 -220.40625 C 187.097656 -223.507812 192.84375 -224.992188 198.90625 -224.859375 C 204.976562 -224.734375 210.53125 -223.1875 215.5625 -220.21875 C 220.601562 -217.25 224.222656 -213.179688 226.421875 -208.015625 C 228.617188 -202.847656 228.425781 -196.78125 225.84375 -189.8125 C 201.820312 -126.019531 174.960938 -64.039062 145.265625 -3.875 C 141.910156 3.09375 136.9375 7.484375 130.34375 9.296875 C 123.757812 11.109375 117.175781 10.785156 110.59375 8.328125 C 104.007812 5.878906 98.910156 1.8125 95.296875 -3.875 C 82.378906 -23.757812 71.722656 -45.0625 63.328125 -67.78125 C 54.941406 -90.507812 47.519531 -113.625 41.0625 -137.125 C 34.601562 -160.625 27.890625 -183.484375 20.921875 -205.703125 C 18.597656 -212.929688 18.660156 -219.191406 21.109375 -224.484375 C 23.566406 -229.773438 27.375 -233.90625 32.53125 -236.875 C 37.695312 -239.84375 43.25 -241.328125 49.1875 -241.328125 C 55.132812 -241.328125 60.6875 -239.710938 65.84375 -236.484375 C 71.007812 -233.265625 74.628906 -228.164062 76.703125 -221.1875 C 83.671875 -199.238281 90.316406 -176.515625 96.640625 -153.015625 C 102.972656 -129.515625 110.53125 -106.660156 119.3125 -84.453125 C 128.351562 -104.335938 137.066406 -124.347656 145.453125 -144.484375 C 153.847656 -164.628906 161.921875 -184.90625 169.671875 -205.3125 Z M 169.671875 -205.3125 "/></g></g></g><g fill="#000000" fill-opacity="1"><g transform="translate(247.968553, 315.559392)"><g><path d="M 36.796875 -238.625 C 37.578125 -245.851562 40.160156 -251.660156 44.546875 -256.046875 C 48.941406 -260.441406 54.109375 -263.410156 60.046875 -264.953125 C 65.984375 -266.503906 71.789062 -266.570312 77.46875 -265.15625 C 83.15625 -263.738281 87.675781 -260.769531 91.03125 -256.25 C 94.382812 -251.726562 95.675781 -245.851562 94.90625 -238.625 C 87.414062 -168.632812 81.601562 -98.519531 77.46875 -28.28125 C 76.957031 -20.789062 74.632812 -14.785156 70.5 -10.265625 C 66.363281 -5.742188 61.390625 -2.769531 55.578125 -1.34375 C 49.773438 0.0703125 44.03125 0.0703125 38.34375 -1.34375 C 32.664062 -2.769531 27.953125 -5.742188 24.203125 -10.265625 C 20.460938 -14.785156 18.851562 -20.789062 19.375 -28.28125 C 23.5 -98.519531 29.304688 -168.632812 36.796875 -238.625 Z M 36.796875 -238.625 "/></g></g></g><g fill="#000000" fill-opacity="1"><g transform="translate(362.629688, 315.559392)"><g><path d="M 169.671875 -205.3125 C 172.253906 -212.28125 176.253906 -217.3125 181.671875 -220.40625 C 187.097656 -223.507812 192.84375 -224.992188 198.90625 -224.859375 C 204.976562 -224.734375 210.53125 -223.1875 215.5625 -220.21875 C 220.601562 -217.25 224.222656 -213.179688 226.421875 -208.015625 C 228.617188 -202.847656 228.425781 -196.78125 225.84375 -189.8125 C 201.820312 -126.019531 174.960938 -64.039062 145.265625 -3.875 C 141.910156 3.09375 136.9375 7.484375 130.34375 9.296875 C 123.757812 11.109375 117.175781 10.785156 110.59375 8.328125 C 104.007812 5.878906 98.910156 1.8125 95.296875 -3.875 C 82.378906 -23.757812 71.722656 -45.0625 63.328125 -67.78125 C 54.941406 -90.507812 47.519531 -113.625 41.0625 -137.125 C 34.601562 -160.625 27.890625 -183.484375 20.921875 -205.703125 C 18.597656 -212.929688 18.660156 -219.191406 21.109375 -224.484375 C 23.566406 -229.773438 27.375 -233.90625 32.53125 -236.875 C 37.695312 -239.84375 43.25 -241.328125 49.1875 -241.328125 C 55.132812 -241.328125 60.6875 -239.710938 65.84375 -236.484375 C 71.007812 -233.265625 74.628906 -228.164062 76.703125 -221.1875 C 83.671875 -199.238281 90.316406 -176.515625 96.640625 -153.015625 C 102.972656 -129.515625 110.53125 -106.660156 119.3125 -84.453125 C 128.351562 -104.335938 137.066406 -124.347656 145.453125 -144.484375 C 153.847656 -164.628906 161.921875 -184.90625 169.671875 -205.3125 Z M 169.671875 -205.3125 "/></g></g></g><g fill="#000000" fill-opacity="1"><g transform="translate(609.771073, 315.559392)"><g><path d="M 220.421875 -36.40625 C 224.804688 -30.207031 226.609375 -24.332031 225.828125 -18.78125 C 225.054688 -13.226562 222.601562 -8.382812 218.46875 -4.25 C 214.34375 -0.125 209.375 2.773438 203.5625 4.453125 C 197.75 6.128906 191.804688 6.128906 185.734375 4.453125 C 179.671875 2.773438 174.445312 -1.03125 170.0625 -6.96875 C 158.4375 -22.976562 145.457031 -37.695312 131.125 -51.125 C 116.789062 -64.5625 101.359375 -76.703125 84.828125 -87.546875 C 83.535156 -72.304688 82.304688 -57.003906 81.140625 -41.640625 C 79.984375 -26.273438 78.757812 -10.972656 77.46875 4.265625 C 76.957031 11.753906 74.570312 17.691406 70.3125 22.078125 C 66.050781 26.472656 60.945312 29.441406 55 30.984375 C 49.0625 32.535156 43.316406 32.597656 37.765625 31.171875 C 32.210938 29.753906 27.628906 26.785156 24.015625 22.265625 C 20.398438 17.753906 18.851562 11.753906 19.375 4.265625 C 21.695312 -23.890625 23.503906 -52.554688 24.796875 -81.734375 C 26.085938 -110.921875 29.570312 -139.457031 35.25 -167.34375 C 38.09375 -181.800781 43.382812 -195.742188 51.125 -209.171875 C 58.875 -222.609375 68.753906 -233.71875 80.765625 -242.5 C 92.773438 -251.28125 106.785156 -256.054688 122.796875 -256.828125 C 133.898438 -257.347656 144.421875 -255.28125 154.359375 -250.625 C 164.304688 -245.976562 172.765625 -239.519531 179.734375 -231.25 C 186.710938 -222.988281 191.425781 -213.691406 193.875 -203.359375 C 196.332031 -193.035156 195.753906 -182.320312 192.140625 -171.21875 C 188.523438 -160.113281 182.648438 -149.65625 174.515625 -139.84375 C 166.378906 -130.03125 157.015625 -121.507812 146.421875 -114.28125 C 174.054688 -91.8125 198.722656 -65.851562 220.421875 -36.40625 Z M 116.59375 -165.40625 C 118.144531 -166.957031 120.726562 -169.347656 124.34375 -172.578125 C 127.957031 -175.804688 131.1875 -179.226562 134.03125 -182.84375 C 136.875 -186.457031 138.035156 -189.296875 137.515625 -191.359375 C 136.484375 -196.785156 134.484375 -199.753906 131.515625 -200.265625 C 128.546875 -200.785156 125.1875 -199.945312 121.4375 -197.75 C 117.695312 -195.5625 114.019531 -192.59375 110.40625 -188.84375 C 106.789062 -185.101562 103.691406 -181.550781 101.109375 -178.1875 C 98.523438 -174.832031 96.84375 -172.378906 96.0625 -170.828125 C 94 -164.890625 92.191406 -158.4375 90.640625 -151.46875 C 95.804688 -152.238281 100.457031 -153.847656 104.59375 -156.296875 C 108.726562 -158.753906 112.726562 -161.789062 116.59375 -165.40625 Z M 116.59375 -165.40625 "/></g></g></g><g fill="#000000" fill-opacity="1"><g transform="translate(854.975569, 315.559392)"><g><path d="M 200.65625 -169.28125 C 201.4375 -143.71875 202.082031 -118.019531 202.59375 -92.1875 C 203.113281 -66.363281 203.757812 -40.539062 204.53125 -14.71875 C 204.789062 -7.226562 202.984375 -1.222656 199.109375 3.296875 C 195.234375 7.816406 190.453125 10.785156 184.765625 12.203125 C 179.085938 13.617188 173.34375 13.617188 167.53125 12.203125 C 161.726562 10.785156 156.820312 7.816406 152.8125 3.296875 C 148.8125 -1.222656 146.679688 -7.226562 146.421875 -14.71875 C 146.171875 -22.46875 145.976562 -30.148438 145.84375 -37.765625 C 145.71875 -45.390625 145.523438 -53.070312 145.265625 -60.8125 L 87.15625 -63.140625 C 85.09375 -53.328125 83.15625 -43.578125 81.34375 -33.890625 C 79.539062 -24.210938 77.734375 -14.46875 75.921875 -4.65625 C 74.628906 2.832031 71.722656 8.253906 67.203125 11.609375 C 62.691406 14.972656 57.460938 16.585938 51.515625 16.453125 C 45.578125 16.328125 39.960938 14.78125 34.671875 11.8125 C 29.378906 8.84375 25.242188 4.648438 22.265625 -0.765625 C 19.296875 -6.191406 18.457031 -12.648438 19.75 -20.140625 C 24.40625 -45.453125 29.632812 -70.503906 35.4375 -95.296875 C 41.25 -120.085938 49.453125 -144.234375 60.046875 -167.734375 C 65.210938 -179.359375 71.796875 -191.882812 79.796875 -205.3125 C 87.804688 -218.738281 96.910156 -231.066406 107.109375 -242.296875 C 117.304688 -253.535156 128.601562 -261.738281 141 -266.90625 C 152.625 -271.8125 162.050781 -272.710938 169.28125 -269.609375 C 176.507812 -266.515625 182.191406 -260.960938 186.328125 -252.953125 C 190.460938 -244.953125 193.5 -235.71875 195.4375 -225.25 C 197.375 -214.789062 198.660156 -204.523438 199.296875 -194.453125 C 199.941406 -184.390625 200.394531 -176 200.65625 -169.28125 Z M 103.046875 -120.46875 C 110.015625 -120.21875 116.851562 -119.960938 123.5625 -119.703125 C 130.28125 -119.441406 137 -119.179688 143.71875 -118.921875 C 143.457031 -127.441406 143.257812 -135.898438 143.125 -144.296875 C 143 -152.691406 142.804688 -161.019531 142.546875 -169.28125 C 142.296875 -172.632812 142.171875 -176.179688 142.171875 -179.921875 C 142.171875 -183.671875 142.171875 -187.484375 142.171875 -191.359375 C 137.773438 -186.191406 134.03125 -181.285156 130.9375 -176.640625 C 125.769531 -168.890625 121.054688 -160.816406 116.796875 -152.421875 C 112.535156 -144.035156 108.722656 -135.582031 105.359375 -127.0625 C 105.109375 -126.03125 104.785156 -124.929688 104.390625 -123.765625 C 104.003906 -122.597656 103.554688 -121.5 103.046875 -120.46875 Z M 103.046875 -120.46875 "/></g></g></g></g></g><g clip-path="url(#4b810697b3)"><g clip-path="url(#aef2a6b911)"><g transform="matrix(1, 0, 0, 1, 730, 246)"><g clip-path="url(#04d3520487)"><g clip-path="url(#05321f5b28)"><g clip-path="url(#4183aa739d)"><path fill="#000000" d="M 0.871094 0.6875 L 90.183594 0.6875 L 90.183594 90 L 0.871094 90 Z M 0.871094 0.6875 " fill-opacity="1" fill-rule="nonzero"/></g></g></g></g></g></g><g clip-path="url(#f3c24532c4)"><g clip-path="url(#e679374838)"><g clip-path="url(#e262eacfc6)"><path fill="#ff9500" d="M 757.929688 316.765625 C 758.167969 316.628906 757.367188 316.050781 755.742188 315.1875 C 754.101562 314.3125 752.949219 313.480469 752.519531 312.855469 C 752.152344 312.320312 751.601562 311.75 751.289062 311.582031 C 750.980469 311.417969 750.804688 311.136719 750.898438 310.957031 C 750.992188 310.78125 750.777344 310.480469 750.417969 310.289062 C 750.058594 310.097656 749.796875 309.679688 749.835938 309.359375 C 749.875 309.039062 749.738281 308.6875 749.527344 308.578125 C 749.320312 308.464844 749.101562 307.957031 749.042969 307.441406 C 748.980469 306.925781 748.851562 306.21875 748.753906 305.871094 C 748.65625 305.523438 748.660156 305.074219 748.765625 304.871094 C 748.875 304.671875 748.792969 304.519531 748.585938 304.53125 C 748.382812 304.546875 748.425781 303.929688 748.691406 303.164062 C 748.953125 302.402344 749.023438 301.699219 748.847656 301.605469 C 748.453125 301.394531 750.929688 296.65625 751.453125 296.621094 C 751.65625 296.609375 752.160156 296.1875 752.566406 295.6875 C 752.976562 295.191406 753.703125 294.691406 754.1875 294.578125 C 754.667969 294.46875 755.335938 294.105469 755.675781 293.769531 C 756.019531 293.4375 756.375 293.300781 756.472656 293.46875 C 756.570312 293.632812 756.941406 293.449219 757.300781 293.050781 C 757.867188 292.425781 758.679688 292.113281 761.101562 291.589844 C 761.421875 291.523438 761.835938 291.179688 762.019531 290.835938 C 762.203125 290.488281 762.484375 290.273438 762.644531 290.355469 C 762.804688 290.441406 763.5 289.695312 764.1875 288.699219 C 764.875 287.703125 765.570312 286.957031 765.730469 287.042969 C 765.890625 287.125 766.132812 286.988281 766.265625 286.734375 C 766.402344 286.480469 766.859375 286.398438 767.28125 286.554688 C 767.707031 286.707031 768.429688 286.566406 768.886719 286.242188 C 769.34375 285.917969 769.648438 285.792969 769.5625 285.960938 C 769.476562 286.132812 769.671875 286.1875 769.996094 286.089844 C 770.324219 285.988281 770.847656 286.046875 771.167969 286.214844 C 771.488281 286.386719 771.847656 286.339844 771.96875 286.109375 C 772.089844 285.882812 772.503906 285.832031 772.886719 286.003906 C 773.269531 286.171875 774.148438 286.132812 774.84375 285.921875 C 775.609375 285.6875 776.464844 285.730469 777.027344 286.027344 C 777.53125 286.296875 778.023438 286.375 778.117188 286.195312 C 778.214844 286.019531 778.796875 286.144531 779.417969 286.472656 C 780.035156 286.804688 780.464844 287.21875 780.371094 287.394531 C 780.277344 287.574219 780.851562 288.066406 781.648438 288.488281 C 782.539062 288.960938 783.023438 289.40625 782.898438 289.636719 C 782.789062 289.839844 782.835938 289.96875 783.007812 289.917969 C 783.460938 289.777344 785.296875 292.648438 785.679688 294.097656 C 785.863281 294.789062 786.171875 295.4375 786.371094 295.542969 C 786.566406 295.648438 786.574219 295.820312 786.386719 295.929688 C 786.199219 296.039062 786.429688 296.457031 786.902344 296.859375 C 787.371094 297.257812 787.679688 297.730469 787.585938 297.90625 C 787.375 298.304688 787.628906 299.15625 788.371094 300.503906 C 788.691406 301.082031 788.875 301.695312 788.785156 301.863281 C 788.566406 302.277344 788.96875 303.535156 789.398438 303.765625 C 789.585938 303.863281 789.589844 304.238281 789.398438 304.589844 C 789.210938 304.945312 789.199219 305.3125 789.375 305.402344 C 789.546875 305.496094 789.585938 305.980469 789.464844 306.484375 C 789.339844 306.984375 789.355469 307.460938 789.503906 307.535156 C 789.648438 307.613281 789.699219 308.050781 789.617188 308.507812 C 789.53125 308.964844 789.554688 309.640625 789.667969 310.011719 C 789.78125 310.382812 789.765625 310.894531 789.628906 311.144531 C 789.496094 311.398438 789.53125 311.683594 789.707031 311.777344 C 789.886719 311.871094 789.835938 312.3125 789.601562 312.753906 C 789.367188 313.195312 789.3125 313.632812 789.480469 313.722656 C 789.648438 313.8125 789.613281 314.441406 789.398438 315.125 C 789.1875 315.804688 789.125 316.425781 789.261719 316.496094 C 789.398438 316.570312 789.335938 317.1875 789.125 317.871094 C 788.910156 318.550781 788.875 319.183594 789.042969 319.273438 C 789.210938 319.363281 788.886719 320.304688 788.324219 321.367188 C 787.753906 322.441406 787.152344 323.222656 786.972656 323.128906 C 786.796875 323.035156 786.496094 323.25 786.304688 323.609375 C 786.113281 323.972656 785.679688 324.230469 785.339844 324.191406 C 784.871094 324.132812 784.792969 324.222656 785 324.582031 C 785.175781 324.882812 784.808594 324.90625 783.972656 324.640625 C 783.253906 324.417969 782.597656 324.363281 782.515625 324.519531 C 782.429688 324.675781 782.140625 324.6875 781.871094 324.542969 C 781.597656 324.398438 781.179688 324.453125 780.933594 324.667969 C 780.691406 324.878906 780.300781 324.949219 780.070312 324.824219 C 779.839844 324.703125 779.519531 324.726562 779.355469 324.878906 C 779.195312 325.03125 778.1875 324.800781 777.117188 324.367188 C 776.046875 323.929688 775.109375 323.683594 775.039062 323.820312 C 774.964844 323.957031 772.96875 323.171875 770.597656 322.074219 C 768.226562 320.976562 766.222656 320.203125 766.140625 320.359375 C 766.058594 320.511719 765.195312 320.214844 764.21875 319.699219 C 763.246094 319.179688 762.371094 318.902344 762.277344 319.078125 C 762.179688 319.261719 761.132812 318.882812 759.832031 318.191406 C 758.402344 317.429688 757.699219 316.902344 757.929688 316.765625 Z M 779.089844 286.84375 C 778.910156 286.628906 778.625 286.492188 778.460938 286.542969 C 778.296875 286.589844 778.445312 286.769531 778.792969 286.933594 C 779.175781 287.117188 779.292969 287.082031 779.089844 286.84375 Z M 748.832031 286.515625 C 748.457031 285.949219 748.039062 285.066406 747.898438 284.550781 C 747.761719 284.039062 747.527344 283.550781 747.375 283.472656 C 747.226562 283.390625 747.203125 282.914062 747.328125 282.414062 C 747.453125 281.910156 747.410156 281.425781 747.238281 281.332031 C 747.066406 281.242188 747.117188 280.796875 747.355469 280.351562 C 747.59375 279.902344 747.617188 279.335938 747.40625 279.09375 C 747.195312 278.851562 747.164062 278.386719 747.335938 278.058594 C 747.507812 277.734375 747.5625 277.320312 747.453125 277.132812 C 747.34375 276.949219 747.558594 275.984375 747.925781 274.984375 C 748.292969 273.988281 748.488281 272.984375 748.355469 272.75 C 748.195312 272.476562 748.816406 271.003906 750.128906 268.535156 L 752.148438 264.742188 L 753.480469 264.957031 C 754.214844 265.074219 754.675781 265.074219 754.511719 264.960938 C 754.34375 264.847656 754.8125 264.84375 755.546875 264.949219 C 756.917969 265.152344 758.515625 266.367188 758.195312 266.960938 C 758.113281 267.121094 758.332031 267.40625 758.6875 267.59375 C 759.039062 267.785156 759.253906 268.082031 759.160156 268.261719 C 759.0625 268.4375 759.144531 268.664062 759.335938 268.765625 C 759.527344 268.867188 759.988281 269.949219 760.359375 271.171875 C 760.734375 272.390625 761.167969 273.460938 761.328125 273.546875 C 761.488281 273.628906 761.515625 274.109375 761.390625 274.613281 C 761.269531 275.113281 761.277344 275.582031 761.414062 275.65625 C 761.546875 275.726562 761.441406 276.414062 761.179688 277.183594 C 760.914062 277.953125 760.839844 278.65625 761.011719 278.746094 C 761.183594 278.839844 761.222656 279.324219 761.097656 279.824219 C 760.972656 280.328125 761 280.804688 761.160156 280.890625 C 761.316406 280.972656 761.292969 281.332031 761.101562 281.6875 C 760.914062 282.042969 760.90625 282.40625 761.082031 282.503906 C 761.269531 282.601562 760.835938 283.742188 760.042969 285.230469 C 759.296875 286.636719 758.492188 287.800781 758.257812 287.816406 C 758.019531 287.828125 757.675781 288.132812 757.484375 288.484375 C 757.296875 288.839844 757.046875 288.964844 756.925781 288.761719 C 756.808594 288.554688 756.589844 288.621094 756.4375 288.902344 C 756.289062 289.183594 755.863281 289.371094 755.492188 289.320312 C 755.121094 289.269531 754.652344 289.316406 754.449219 289.425781 C 754.25 289.535156 753.054688 289.15625 751.800781 288.585938 C 750.105469 287.820312 749.339844 287.28125 748.832031 286.519531 Z M 794.6875 309.710938 C 794.722656 309.410156 794.457031 308.898438 794.097656 308.570312 C 793.734375 308.242188 793.507812 307.597656 793.597656 307.132812 C 793.683594 306.667969 793.703125 306.167969 793.644531 306.019531 C 793.277344 305.160156 793.628906 303.628906 794.617188 301.769531 C 795.394531 300.3125 795.597656 299.664062 795.273438 299.683594 C 794.929688 299.707031 794.996094 299.585938 795.507812 299.242188 C 795.898438 298.980469 796.488281 298.25 796.828125 297.617188 C 797.226562 296.867188 797.765625 296.394531 798.375 296.257812 C 798.890625 296.144531 799.511719 295.683594 799.75 295.238281 C 800.136719 294.527344 801.539062 293.375 801.195312 294.054688 C 800.859375 294.710938 803.644531 293.34375 804 292.675781 C 804.253906 292.195312 804.59375 292.019531 804.917969 292.191406 C 805.199219 292.339844 805.996094 292.390625 806.683594 292.300781 C 808.742188 292.03125 813.875 295.082031 813.273438 296.214844 C 813.175781 296.394531 813.289062 296.644531 813.527344 296.773438 C 813.976562 297.011719 814.011719 298.703125 813.585938 299.507812 C 813.449219 299.765625 813.480469 300.050781 813.65625 300.144531 C 813.851562 300.25 813.265625 301.660156 812.179688 303.699219 C 811.191406 305.558594 810.257812 307.011719 810.101562 306.929688 C 809.949219 306.847656 809.414062 307.320312 808.914062 307.976562 C 808.398438 308.664062 807.484375 309.335938 806.785156 309.550781 C 806.113281 309.753906 805.453125 310.132812 805.316406 310.390625 C 805.179688 310.648438 804.921875 310.78125 804.746094 310.6875 C 804.566406 310.59375 804.304688 310.738281 804.160156 311.011719 C 804.015625 311.28125 803.652344 311.472656 803.355469 311.4375 C 803.054688 311.398438 802.589844 311.609375 802.320312 311.902344 C 802.046875 312.199219 801.414062 312.394531 800.910156 312.339844 C 800.367188 312.28125 800.183594 312.363281 800.453125 312.539062 C 801.746094 313.382812 799.058594 312.566406 796.976562 311.484375 C 795.230469 310.578125 794.636719 310.117188 794.6875 309.710938 Z M 749.941406 267.074219 C 750.175781 266.628906 750.347656 266.488281 750.316406 266.757812 C 750.289062 267.027344 750.097656 267.386719 749.890625 267.5625 C 749.683594 267.734375 749.707031 267.515625 749.941406 267.074219 Z M 770.398438 277.664062 C 770.621094 277.535156 770.4375 277.152344 769.96875 276.769531 C 769.035156 276.003906 767.886719 272.820312 768.277344 272.085938 C 768.417969 271.816406 768.402344 271.523438 768.234375 271.4375 C 768.070312 271.347656 768.179688 270.574219 768.484375 269.714844 C 768.789062 268.855469 768.867188 268.164062 768.65625 268.179688 C 768.449219 268.191406 768.515625 267.75 768.8125 267.199219 C 769.125 266.609375 769.167969 266.207031 768.917969 266.222656 C 768.667969 266.238281 768.714844 265.804688 769.035156 265.171875 C 770.738281 261.804688 773.117188 256.734375 773.390625 255.898438 C 773.5625 255.367188 773.847656 255.007812 774.019531 255.097656 C 774.191406 255.191406 774.570312 254.820312 774.859375 254.28125 C 775.164062 253.707031 775.472656 253.449219 775.597656 253.664062 C 775.714844 253.871094 775.933594 253.808594 776.082031 253.535156 C 776.226562 253.257812 776.566406 253.148438 776.832031 253.289062 C 777.097656 253.429688 777.4375 253.3125 777.589844 253.027344 C 777.796875 252.636719 778.035156 252.664062 778.5625 253.140625 C 779.078125 253.605469 779.328125 253.644531 779.519531 253.28125 C 779.816406 252.726562 781.167969 253.304688 781.796875 254.253906 C 782.015625 254.585938 782.691406 255.234375 783.296875 255.691406 C 783.90625 256.152344 784.335938 256.65625 784.25 256.8125 C 784.0625 257.164062 784.9375 260.078125 785.285156 260.265625 C 785.425781 260.339844 785.328125 261.015625 785.070312 261.769531 C 784.8125 262.523438 784.683594 263.242188 784.789062 263.375 C 784.890625 263.503906 784.957031 264.335938 784.941406 265.21875 C 784.914062 266.621094 784.585938 267.429688 782.414062 271.453125 C 780.957031 274.15625 779.738281 276.089844 779.484375 276.117188 C 779.242188 276.136719 778.710938 276.570312 778.300781 277.078125 C 777.453125 278.121094 775.929688 278.835938 775.285156 278.492188 C 775.050781 278.367188 774.867188 278.425781 774.878906 278.621094 C 774.890625 278.820312 774.136719 278.773438 773.199219 278.523438 C 772.261719 278.273438 771.160156 278.03125 770.753906 277.980469 C 770.273438 277.921875 770.148438 277.808594 770.398438 277.664062 Z M 789.746094 284.53125 C 789.839844 284.355469 789.664062 284.074219 789.355469 283.90625 C 788.585938 283.484375 788.078125 281.453125 788.53125 280.601562 C 788.734375 280.21875 788.710938 279.917969 788.472656 279.929688 C 788.195312 279.949219 788.941406 278.277344 790.597656 275.164062 C 792 272.527344 793.101562 270.214844 793.042969 270.03125 C 792.988281 269.84375 793.382812 268.953125 793.921875 268.054688 C 794.941406 266.355469 796.980469 264.835938 797.710938 265.222656 C 797.933594 265.34375 798.492188 265.152344 798.953125 264.796875 C 799.414062 264.445312 799.828125 264.285156 799.875 264.441406 C 799.921875 264.59375 800.585938 264.71875 801.351562 264.71875 C 802.859375 264.714844 805.625 266.089844 805.683594 266.867188 C 805.703125 267.117188 806.398438 267.773438 807.230469 268.328125 C 808.0625 268.878906 808.707031 269.546875 808.664062 269.804688 C 808.617188 270.0625 808.730469 270.652344 808.910156 271.117188 C 809.09375 271.578125 809.148438 272.128906 809.035156 272.339844 C 808.925781 272.550781 808.976562 272.878906 809.15625 273.066406 C 809.605469 273.535156 805.019531 282.230469 804.300781 282.277344 C 804.023438 282.292969 803.488281 282.652344 803.109375 283.074219 C 802.726562 283.492188 802.300781 283.777344 802.15625 283.699219 C 802.011719 283.621094 801.566406 283.945312 801.167969 284.414062 C 800.769531 284.882812 800.308594 285.195312 800.144531 285.109375 C 799.980469 285.019531 799.730469 285.175781 799.582031 285.449219 C 799.261719 286.054688 796.949219 286.714844 796.320312 286.378906 C 796.070312 286.246094 795.875 286.308594 795.890625 286.515625 C 795.902344 286.726562 795.359375 286.722656 794.679688 286.511719 C 794 286.296875 793.367188 286.261719 793.277344 286.429688 C 793.1875 286.597656 792.316406 286.3125 791.34375 285.796875 C 790.371094 285.277344 789.652344 284.707031 789.746094 284.53125 Z M 804.136719 264.675781 C 804.300781 264.625 804.585938 264.761719 804.769531 264.980469 C 804.972656 265.21875 804.855469 265.253906 804.46875 265.070312 C 804.125 264.902344 803.972656 264.726562 804.136719 264.675781 Z M 804.136719 264.675781 " fill-opacity="1" fill-rule="nonzero"/></g></g></g></svg>